<?xml version="1.0" encoding="UTF-8"?>
<svg id="Layer_2" data-name="Layer 2" xmlns="http://www.w3.org/2000/svg" viewBox="0 0 1236.41 397.35">
  <defs>
    <style>
      .cls-1 {
        fill: #0d0e0e;
      }
    </style>
  </defs>
  <g id="Layer_1-2" data-name="Layer 1">
    <g>
      <circle class="cls-1" cx="363.1" cy="372.62" r="8.47"/>
      <circle class="cls-1" cx="911.26" cy="372.62" r="8.47"/>
      <g>
        <path d="M1213.96,89.03v-12.03h-3.98v-1.32h9.57v1.32h-3.98v12.03h-1.6Z"/>
        <path d="M1222.95,89.03v-13.34h1.87l4.73,9.32,4.71-9.32h1.89v13.34h-1.6v-10.48l-4.4,8.61h-1.2l-4.38-8.58v10.44h-1.6Z"/>
      </g>
      <g>
        <path d="M27.42,373.12c-1.78-1.12-3.83-2.06-6.13-2.84-2.03-.68-3.89-1.3-5.56-1.85-1.67-.55-3.13-1.15-4.37-1.81-1.24-.66-2.19-1.47-2.85-2.43-.66-.96-.99-2.21-.99-3.76,0-1.64.38-3.03,1.12-4.17.74-1.14,1.78-2.02,3.12-2.63,1.34-.62,2.86-.9,4.58-.85,2.08,0,3.81.42,5.19,1.26,1.38.84,2.41,1.9,3.08,3.18.68,1.28,1.02,2.58,1.02,3.9h5.97c0-2.6-.63-4.89-1.9-6.87-1.27-1.98-3.02-3.54-5.26-4.68-2.24-1.14-4.87-1.71-7.9-1.71s-5.73.56-7.97,1.67c-2.24,1.12-3.95,2.66-5.15,4.62-1.2,1.96-1.79,4.24-1.79,6.84,0,3.05.89,5.55,2.68,7.49,1.78,1.94,4.67,3.54,8.64,4.82,1.99.64,3.84,1.25,5.56,1.85,1.72.59,3.23,1.27,4.54,2.02,1.31.75,2.34,1.71,3.09,2.87.75,1.16,1.12,2.61,1.12,4.34,0,1.55-.4,2.94-1.18,4.17-.79,1.23-1.95,2.2-3.46,2.91-1.52.71-3.34,1.06-5.46,1.06-2.44,0-4.49-.47-6.14-1.4-1.65-.93-2.91-2.19-3.76-3.76-.86-1.57-1.29-3.29-1.29-5.16H0c0,3.01.7,5.65,2.1,7.93,1.4,2.28,3.39,4.06,5.97,5.33,2.57,1.28,5.6,1.91,9.08,1.91s6.53-.64,8.88-1.91c2.35-1.28,4.13-2.93,5.32-4.96,1.2-2.03,1.8-4.18,1.8-6.46,0-2.69-.51-4.9-1.53-6.63-1.02-1.73-2.42-3.16-4.2-4.27Z"/>
        <path d="M73.08,350.59c-2.44-1.28-5.56-1.91-9.35-1.91h-15.25v47.86h5.69v-19.01h9.56c3.84,0,6.97-.64,9.39-1.91,2.42-1.28,4.21-3.01,5.39-5.2,1.17-2.19,1.76-4.63,1.76-7.32s-.59-5.18-1.76-7.35c-1.18-2.16-2.98-3.89-5.42-5.16ZM72.03,370.04c-1.61,1.76-4.4,2.63-8.37,2.63h-9.49v-19.21h9.49c3.98,0,6.77.86,8.37,2.56,1.6,1.71,2.41,4.07,2.41,7.08s-.8,5.19-2.41,6.94Z"/>
        <path d="M103.25,348.67l-17.49,47.86h5.97l4.39-12.31h20.14l4.35,12.31h6.1l-17.42-47.86h-6.03ZM97.77,379.58l8.46-23.72,8.38,23.72h-16.84Z"/>
        <path d="M149.51,355.27c2.42-1.57,5.26-2.36,8.51-2.36,3.75,0,6.72.9,8.92,2.7,2.19,1.8,3.67,4.18,4.44,7.14h6.17c-.95-4.74-3.1-8.41-6.44-11.01-3.35-2.6-7.71-3.9-13.09-3.9-4.47,0-8.35,1.04-11.63,3.11-3.28,2.07-5.81,4.97-7.59,8.68-1.79,3.72-2.68,8.03-2.68,12.96s.89,9.24,2.68,12.96c1.78,3.72,4.31,6.61,7.59,8.68,3.28,2.07,7.15,3.11,11.63,3.11,5.38,0,9.74-1.3,13.09-3.9,3.34-2.6,5.49-6.2,6.44-10.8h-6.17c-.77,2.92-2.25,5.25-4.44,7.01-2.19,1.76-5.16,2.63-8.92,2.63-3.25,0-6.09-.79-8.51-2.36-2.42-1.57-4.28-3.83-5.59-6.77-1.31-2.94-1.97-6.46-1.97-10.56s.65-7.62,1.97-10.56c1.31-2.94,3.17-5.2,5.59-6.77Z"/>
        <polygon points="222.22 353.39 222.22 348.67 192.87 348.67 192.87 396.53 222.22 396.53 222.22 391.82 198.56 391.82 198.56 374.72 220.19 374.72 220.19 370.07 198.56 370.07 198.56 353.39 222.22 353.39"/>
      </g>
      <g>
        <path d="M529.02,350.59c-2.44-1.28-5.56-1.91-9.35-1.91h-15.25v47.86h5.69v-19.01h9.56c3.84,0,6.97-.64,9.39-1.91,2.42-1.28,4.21-3.01,5.39-5.2,1.17-2.19,1.76-4.63,1.76-7.32s-.59-5.18-1.76-7.35c-1.18-2.16-2.98-3.89-5.42-5.16ZM527.97,370.04c-1.61,1.76-4.4,2.63-8.37,2.63h-9.49v-19.21h9.49c3.98,0,6.77.86,8.37,2.56,1.6,1.71,2.41,4.07,2.41,7.08s-.8,5.19-2.41,6.94Z"/>
        <polygon points="550.78 396.53 580.13 396.53 580.13 391.82 556.47 391.82 556.47 374.72 578.1 374.72 578.1 370.07 556.47 370.07 556.47 353.39 580.13 353.39 580.13 348.67 550.78 348.67 550.78 396.53"/>
        <path d="M627.78,351c-3.3-2.1-7.16-3.14-11.59-3.14s-8.16,1.05-11.46,3.14c-3.3,2.1-5.87,5-7.73,8.72-1.85,3.72-2.78,8.01-2.78,12.89s.93,9.24,2.78,12.96c1.85,3.72,4.43,6.61,7.73,8.68,3.3,2.07,7.12,3.11,11.46,3.11s8.29-1.04,11.59-3.11c3.3-2.07,5.85-4.97,7.66-8.68,1.81-3.72,2.71-8.03,2.71-12.96s-.9-9.17-2.71-12.89c-1.81-3.71-4.36-6.62-7.66-8.72ZM630.33,383.17c-1.33,2.94-3.21,5.2-5.62,6.77-2.42,1.57-5.26,2.36-8.51,2.36s-6.02-.79-8.44-2.36c-2.42-1.57-4.31-3.83-5.66-6.77-1.36-2.94-2.03-6.46-2.03-10.56s.68-7.62,2.03-10.56c1.35-2.94,3.24-5.18,5.66-6.73,2.42-1.55,5.23-2.32,8.44-2.32s6.09.78,8.51,2.32c2.42,1.55,4.29,3.79,5.62,6.73,1.34,2.94,2,6.46,2,10.56s-.67,7.62-2,10.56Z"/>
        <path d="M678.09,350.59c-2.44-1.28-5.56-1.91-9.36-1.91h-15.25v47.86h5.69v-19.01h9.56c3.84,0,6.97-.64,9.39-1.91,2.42-1.28,4.21-3.01,5.39-5.2,1.18-2.19,1.77-4.63,1.77-7.32s-.59-5.18-1.77-7.35c-1.17-2.16-2.98-3.89-5.42-5.16ZM677.04,370.04c-1.6,1.76-4.4,2.63-8.37,2.63h-9.49v-19.21h9.49c3.98,0,6.77.86,8.37,2.56,1.6,1.71,2.41,4.07,2.41,7.08s-.8,5.19-2.41,6.94Z"/>
        <polygon points="705.54 348.67 699.85 348.67 699.85 396.53 727.64 396.53 727.64 391.95 705.54 391.95 705.54 348.67"/>
        <polygon points="771.98 353.39 771.98 348.67 742.62 348.67 742.62 396.53 771.98 396.53 771.98 391.82 748.32 391.82 748.32 374.72 769.94 374.72 769.94 370.07 748.32 370.07 748.32 353.39 771.98 353.39"/>
      </g>
      <g>
        <polygon points="1051.7 353.39 1065.87 353.39 1065.87 396.53 1071.56 396.53 1071.56 353.39 1085.73 353.39 1085.73 348.67 1051.7 348.67 1051.7 353.39"/>
        <polygon points="1099.83 396.53 1129.19 396.53 1129.19 391.82 1105.53 391.82 1105.53 374.72 1127.15 374.72 1127.15 370.07 1105.53 370.07 1105.53 353.39 1129.19 353.39 1129.19 348.67 1099.83 348.67 1099.83 396.53"/>
        <path d="M1156.67,355.27c2.42-1.57,5.25-2.36,8.51-2.36,3.75,0,6.72.9,8.92,2.7,2.19,1.8,3.67,4.18,4.44,7.14h6.17c-.95-4.74-3.09-8.41-6.44-11.01-3.34-2.6-7.71-3.9-13.08-3.9-4.47,0-8.35,1.04-11.63,3.11-3.28,2.07-5.81,4.97-7.59,8.68-1.79,3.72-2.68,8.03-2.68,12.96s.89,9.24,2.68,12.96c1.79,3.72,4.32,6.61,7.59,8.68,3.28,2.07,7.15,3.11,11.63,3.11,5.38,0,9.74-1.3,13.08-3.9,3.34-2.6,5.49-6.2,6.44-10.8h-6.17c-.77,2.92-2.25,5.25-4.44,7.01-2.19,1.76-5.16,2.63-8.92,2.63-3.25,0-6.09-.79-8.51-2.36-2.42-1.57-4.28-3.83-5.59-6.77-1.31-2.94-1.97-6.46-1.97-10.56s.65-7.62,1.97-10.56c1.31-2.94,3.17-5.2,5.59-6.77Z"/>
        <polygon points="1230.33 348.67 1230.33 369.8 1205.72 369.8 1205.72 348.67 1200.03 348.67 1200.03 396.53 1205.72 396.53 1205.72 374.52 1230.33 374.52 1230.33 396.53 1236.02 396.53 1236.02 348.67 1230.33 348.67"/>
      </g>
      <path class="cls-1" d="M159.31,258.52H.04v-50.67h51.76v-83.6l-44.53,2.17v-50.67l68.78-3.63c10.13-.48,17.9,1.95,23.32,7.25,5.43,5.29,8.15,13.01,8.15,23.14v105.34h51.78v50.67Z"/>
      <path class="cls-1" d="M284.3,122.79c-10.38,0-19.5,2.12-27.35,6.35-7.84,4.22-13.93,11.28-18.27,21.18-4.34,9.89-6.51,23.39-6.51,40.51v67.69h-57.93V75.74h57.93v22.08l-10.85,32.56h14.48c3.61-16.41,11.15-30.22,22.61-41.43,11.45-11.22,26.96-16.84,46.51-16.84,23.4,0,41.74,7.55,55.01,22.64,13.27,15.08,19.91,36.73,19.91,64.97v98.8h-57.93v-89.77c0-16.64-2.77-28.46-8.31-35.45-5.55-7-15.32-10.51-29.31-10.51Z"/>
      <path class="cls-1" d="M504.51,122.79c-10.38,0-19.5,2.12-27.35,6.35-7.84,4.22-13.93,11.28-18.27,21.18-4.34,9.89-6.51,23.39-6.51,40.51v67.69h-57.93V75.74h57.93v22.08l-10.85,32.56h14.48c3.61-16.41,11.15-30.22,22.61-41.43,11.45-11.22,26.96-16.84,46.51-16.84,23.4,0,41.74,7.55,55.01,22.64,13.27,15.08,19.91,36.73,19.91,64.97v98.8h-57.93v-89.77c0-16.64-2.77-28.46-8.31-35.45-5.55-7-15.32-10.51-29.31-10.51Z"/>
      <path class="cls-1" d="M614.87,163.32c0-21.23,4.58-38.84,13.74-52.84,9.17-13.99,21.6-24.49,37.28-31.48,15.69-7,33.07-10.51,52.13-10.51s36.38,3.51,51.94,10.51c15.57,6.99,27.93,17.49,37.09,31.48,9.17,14,13.77,31.61,13.77,52.84s-4.59,38.91-13.77,53.03c-9.16,14.12-21.52,24.69-37.09,31.69-15.57,6.99-32.88,10.48-51.94,10.48s-36.44-3.49-52.13-10.48c-15.67-7-28.1-17.57-37.28-31.69-9.16-14.12-13.74-31.8-13.74-53.03ZM673.13,163.32c0,15.45,4.1,26.73,12.31,33.86,8.21,7.11,19.18,10.67,32.93,10.67s24.38-3.55,32.59-10.67c8.21-7.13,12.31-18.41,12.31-33.86s-4.1-26.35-12.31-33.46c-8.21-7.13-19.07-10.7-32.59-10.7s-24.73,3.57-32.93,10.7c-8.21,7.11-12.31,18.27-12.31,33.46Z"/>
      <path class="cls-1" d="M927.97,207.85l41.62-132.11h57.18l-58.98,182.78h-94.12l-59.35-182.78h57.18l41.99,132.11h14.48Z"/>
      <path class="cls-1" d="M1021.41,204.93c0-15.67,5.43-28.21,16.28-37.62,10.85-9.42,29.8-16.07,56.84-19.93l57.53-7.94c0-7.48-2.96-13.33-8.87-17.55-5.9-4.24-15.12-6.35-27.67-6.35-11.6,0-20.54,2.3-26.82,6.88-6.27,4.59-9.4,11.11-9.4,19.54h-54.27c0-15.44,3.98-28.65,11.94-39.63,7.96-10.97,18.81-19.36,32.56-25.15,13.77-5.78,29.09-8.68,45.99-8.68s32.44,2.85,46.67,8.52c14.24,5.67,25.77,14.71,34.58,27.14,8.8,12.43,13.21,28.64,13.21,48.66v51.41h26.42v50.67h-40.19c-8.68,0-15.38-2.34-20.09-7.04-4.7-4.71-7.04-11.41-7.04-20.09v-3.63l9.05-21.71h-14.48c-2.17,10.13-5.98,19.43-11.41,27.88-5.42,8.44-13.2,15.25-23.35,20.44-10.13,5.19-23.76,7.78-40.88,7.78-14.24,0-25.77-1.87-34.58-5.61-8.81-3.74-15.51-8.45-20.09-14.11-4.59-5.68-7.73-11.6-9.42-17.74-1.68-6.16-2.52-11.53-2.52-16.12ZM1079.31,194.08c0,5.31,2.1,8.94,6.33,10.88,4.24,1.93,8.76,2.89,13.58,2.89,15.94,0,28.72-3.19,38.36-9.58,9.65-6.41,14.48-15.16,14.48-26.26l-46.67,6.51c-8.68,1.22-15.21,2.79-19.56,4.71-4.34,1.93-6.51,5.55-6.51,10.85Z"/>
      <circle class="cls-1" cx="79.78" cy="27.89" r="27.89"/>
    </g>
  </g>
</svg>